<?xml version="1.0" encoding="UTF-8"?>
<!DOCTYPE svg PUBLIC "-//W3C//DTD SVG 1.1//EN"
    "http://www.w3.org/Graphics/SVG/1.1/DTD/svg11.dtd"><svg xmlns="http://www.w3.org/2000/svg" height="368.4211" stroke-opacity="1" viewBox="0 0 1000 368" font-size="1" width="1000.0000" xmlns:xlink="http://www.w3.org/1999/xlink" stroke="rgb(0,0,0)" version="1.1"><defs></defs><g stroke-linejoin="miter" stroke-opacity="1.0" fill-opacity="1.0" font-size="16.0px" stroke="rgb(0,0,0)" stroke-width="2.4279079146675357" fill="rgb(0,0,0)" stroke-linecap="butt" stroke-miterlimit="10.0"><text dominant-baseline="middle" transform="matrix(1.0000,0.0000,0.0000,1.0000,736.8421,78.9474)" stroke="none" text-anchor="middle">send</text></g><g stroke-linejoin="miter" stroke-opacity="1.0" fill-opacity="1.0" font-size="16.0px" stroke="rgb(0,0,0)" stroke-width="2.4279079146675357" fill="rgb(0,0,0)" stroke-linecap="butt" stroke-miterlimit="10.0"><text dominant-baseline="middle" transform="matrix(1.0000,0.0000,0.0000,1.0000,815.7895,157.8947)" stroke="none" text-anchor="middle">receive</text></g><g stroke-linejoin="miter" stroke-opacity="1.0" fill-opacity="0.0" font-size="16.0px" stroke="rgb(0,0,0)" stroke-width="2.4279079146675357" fill="rgb(0,0,0)" stroke-linecap="butt" stroke-miterlimit="10.0"><path d="M 789.4737,157.8947 c 0.0000,-29.0676 -23.5640,-52.6316 -52.6316 -52.6316c -29.0676,-0.0000 -52.6316,23.5640 -52.6316 52.6316c -0.0000,29.0676 23.5640,52.6316 52.6316 52.6316c 29.0676,0.0000 52.6316,-23.5640 52.6316 -52.6316Z"/></g><g stroke-linejoin="miter" stroke-opacity="1.0" fill-opacity="1.0" font-size="18.0px" stroke="rgb(0,0,0)" stroke-width="2.4279079146675357" fill="rgb(0,0,0)" stroke-linecap="butt" stroke-miterlimit="10.0"><text dominant-baseline="middle" transform="matrix(1.0000,0.0000,0.0000,1.0000,736.8421,157.8947)" stroke="none" text-anchor="middle">Chat</text></g><g stroke-linejoin="miter" stroke-opacity="1.0" fill-opacity="0.0" font-size="16.0px" stroke="rgb(0,0,0)" stroke-width="2.4279079146675357" fill="rgb(0,0,0)" stroke-linecap="butt" stroke-miterlimit="10.0"><path d="M 785.4801,178.0412 c 8.0336,18.8249 29.8066,27.5729 48.6315 19.5393c 18.8249,-8.0336 27.5729,-29.8066 19.5393 -48.6315c -8.0336,-18.8249 -29.8066,-27.5729 -48.6315 -19.5393"/></g><g stroke-linejoin="miter" stroke-opacity="1.0" fill-opacity="1.0" font-size="16.0px" stroke="rgb(0,0,0)" stroke-width="0.0" fill="rgb(0,0,0)" stroke-linecap="butt" stroke-miterlimit="10.0"></g><g stroke-linejoin="miter" stroke-opacity="1.0" fill-opacity="1.0" font-size="16.0px" stroke="rgb(0,0,0)" stroke-width="0.0" fill="rgb(0,0,0)" stroke-linecap="butt" stroke-miterlimit="10.0"></g><g stroke-linejoin="miter" stroke-opacity="1.0" fill-opacity="1.0" font-size="16.0px" stroke="rgb(0,0,0)" stroke-width="0.0" fill="rgb(0,0,0)" stroke-linecap="butt" stroke-miterlimit="10.0"><path d="M 785.4801,137.7482 l 26.0261,-2.3276 l -7.0737,-5.7604 l 0.7351,-9.0928 Z"/></g><g stroke-linejoin="miter" stroke-opacity="1.0" fill-opacity="1.0" font-size="16.0px" stroke="rgb(0,0,0)" stroke-width="0.0" fill="rgb(0,0,0)" stroke-linecap="butt" stroke-miterlimit="10.0"><path d="M 804.4324,129.6603 l 0.5870,-0.2505 l 0.4765,1.1165 l -1.0635,-0.8660 l 0.5870,-0.2505 l -0.4765,-1.1165 Z"/></g><g stroke-linejoin="miter" stroke-opacity="1.0" fill-opacity="0.0" font-size="16.0px" stroke="rgb(0,0,0)" stroke-width="2.4279079146675357" fill="rgb(0,0,0)" stroke-linecap="butt" stroke-miterlimit="10.0"><path d="M 756.9886,109.2568 c 18.8249,-8.0336 27.5729,-29.8066 19.5393 -48.6315c -8.0336,-18.8249 -29.8066,-27.5729 -48.6315 -19.5393c -18.8249,8.0336 -27.5729,29.8066 -19.5393 48.6315"/></g><g stroke-linejoin="miter" stroke-opacity="1.0" fill-opacity="1.0" font-size="16.0px" stroke="rgb(0,0,0)" stroke-width="0.0" fill="rgb(0,0,0)" stroke-linecap="butt" stroke-miterlimit="10.0"></g><g stroke-linejoin="miter" stroke-opacity="1.0" fill-opacity="1.0" font-size="16.0px" stroke="rgb(0,0,0)" stroke-width="0.0" fill="rgb(0,0,0)" stroke-linecap="butt" stroke-miterlimit="10.0"></g><g stroke-linejoin="miter" stroke-opacity="1.0" fill-opacity="1.0" font-size="16.0px" stroke="rgb(0,0,0)" stroke-width="0.0" fill="rgb(0,0,0)" stroke-linecap="butt" stroke-miterlimit="10.0"><path d="M 716.6956,109.2568 l -2.3276,-26.0261 l -5.7604,7.0737 l -9.0928,-0.7351 Z"/></g><g stroke-linejoin="miter" stroke-opacity="1.0" fill-opacity="1.0" font-size="16.0px" stroke="rgb(0,0,0)" stroke-width="0.0" fill="rgb(0,0,0)" stroke-linecap="butt" stroke-miterlimit="10.0"><path d="M 708.6076,90.3044 l -0.2505,-0.5870 l 1.1165,-0.4765 l -0.8660,1.0635 l -0.2505,-0.5870 l -1.1165,0.4765 Z"/></g><g stroke-linejoin="miter" stroke-opacity="1.0" fill-opacity="1.0" font-size="16.0px" stroke="rgb(0,0,0)" stroke-width="2.4279079146675357" fill="rgb(0,0,0)" stroke-linecap="butt" stroke-miterlimit="10.0"><text dominant-baseline="text-after-edge" transform="matrix(1.0000,0.0000,0.0000,1.0000,605.2632,157.8947)" stroke="none" text-anchor="middle">identify</text></g><g stroke-linejoin="miter" stroke-opacity="1.0" fill-opacity="1.0" font-size="16.0px" stroke="rgb(0,0,0)" stroke-width="2.4279079146675357" fill="rgb(0,0,0)" stroke-linecap="butt" stroke-miterlimit="10.0"><text dominant-baseline="middle" transform="matrix(1.0000,0.0000,0.0000,1.0000,473.6842,263.1579)" stroke="none" text-anchor="middle">disconnect</text></g><g stroke-linejoin="miter" stroke-opacity="1.0" fill-opacity="0.0" stroke="rgb(0,0,0)" stroke-width="2.4279079146675357" fill="rgb(0,0,0)" stroke-linecap="butt" stroke-miterlimit="10.0"><path d="M 526.3158,157.8947 c 0.0000,-29.0676 -23.5640,-52.6316 -52.6316 -52.6316c -29.0676,-0.0000 -52.6316,23.5640 -52.6316 52.6316c -0.0000,29.0676 23.5640,52.6316 52.6316 52.6316c 29.0676,0.0000 52.6316,-23.5640 52.6316 -52.6316Z"/></g><g stroke-linejoin="miter" stroke-opacity="1.0" fill-opacity="1.0" font-size="18.0px" stroke="rgb(0,0,0)" stroke-width="2.4279079146675357" fill="rgb(0,0,0)" stroke-linecap="butt" stroke-miterlimit="10.0"><text dominant-baseline="middle" transform="matrix(1.0000,0.0000,0.0000,1.0000,473.6842,157.8947)" stroke="none" text-anchor="middle">Connected</text></g><g stroke-linejoin="miter" stroke-opacity="1.0" fill-opacity="1.0" font-size="16.0px" stroke="rgb(0,0,0)" stroke-width="2.4279079146675357" fill="rgb(0,0,0)" stroke-linecap="butt" stroke-miterlimit="10.0"><text dominant-baseline="text-after-edge" transform="matrix(1.0000,0.0000,0.0000,1.0000,342.1053,157.8947)" stroke="none" text-anchor="middle">connect</text></g><g stroke-linejoin="miter" stroke-opacity="1.0" fill-opacity="0.0" stroke="rgb(0,0,0)" stroke-width="2.4279079146675357" fill="rgb(0,0,0)" stroke-linecap="butt" stroke-miterlimit="10.0"><path d="M 263.1579,157.8947 c 0.0000,-29.0676 -23.5640,-52.6316 -52.6316 -52.6316c -29.0676,-0.0000 -52.6316,23.5640 -52.6316 52.6316c -0.0000,29.0676 23.5640,52.6316 52.6316 52.6316c 29.0676,0.0000 52.6316,-23.5640 52.6316 -52.6316Z"/></g><g stroke-linejoin="miter" stroke-opacity="1.0" fill-opacity="1.0" font-size="18.0px" stroke="rgb(0,0,0)" stroke-width="2.4279079146675357" fill="rgb(0,0,0)" stroke-linecap="butt" stroke-miterlimit="10.0"><text dominant-baseline="middle" transform="matrix(1.0000,0.0000,0.0000,1.0000,210.5263,157.8947)" stroke="none" text-anchor="middle">Ready</text></g><g stroke-linejoin="miter" stroke-opacity="1.0" fill-opacity="0.0" stroke="rgb(0,0,0)" stroke-width="2.4279079146675357" fill="rgb(0,0,0)" stroke-linecap="butt" stroke-miterlimit="10.0"><path d="M 259.1643,137.7482 c 41.6497,-35.3429 101.3203,-39.8475 147.8038 -11.1578"/></g><g stroke-linejoin="miter" stroke-opacity="1.0" fill-opacity="1.0" stroke="rgb(0,0,0)" stroke-width="0.0" fill="rgb(0,0,0)" stroke-linecap="butt" stroke-miterlimit="10.0"></g><g stroke-linejoin="miter" stroke-opacity="1.0" fill-opacity="1.0" stroke="rgb(0,0,0)" stroke-width="0.0" fill="rgb(0,0,0)" stroke-linecap="butt" stroke-miterlimit="10.0"></g><g stroke-linejoin="miter" stroke-opacity="1.0" fill-opacity="1.0" stroke="rgb(0,0,0)" stroke-width="0.0" fill="rgb(0,0,0)" stroke-linecap="butt" stroke-miterlimit="10.0"><path d="M 425.0463,137.7482 l -16.9065,-19.9234 l -0.6285,9.1008 l -7.8533,4.6416 Z"/></g><g stroke-linejoin="miter" stroke-opacity="1.0" fill-opacity="1.0" stroke="rgb(0,0,0)" stroke-width="0.0" fill="rgb(0,0,0)" stroke-linecap="butt" stroke-miterlimit="10.0"><path d="M 407.5112,126.9256 l -0.5431,-0.3352 l 0.6376,-1.0330 l -0.0945,1.3682 l -0.5431,-0.3352 l -0.6376,1.0330 Z"/></g><g stroke-linejoin="miter" stroke-opacity="1.0" fill-opacity="0.0" stroke="rgb(0,0,0)" stroke-width="2.4279079146675357" fill="rgb(0,0,0)" stroke-linecap="butt" stroke-miterlimit="10.0"><path d="M 522.3222,137.7482 c 41.6497,-35.3429 101.3203,-39.8475 147.8038 -11.1578"/></g><g stroke-linejoin="miter" stroke-opacity="1.0" fill-opacity="1.0" stroke="rgb(0,0,0)" stroke-width="0.0" fill="rgb(0,0,0)" stroke-linecap="butt" stroke-miterlimit="10.0"></g><g stroke-linejoin="miter" stroke-opacity="1.0" fill-opacity="1.0" stroke="rgb(0,0,0)" stroke-width="0.0" fill="rgb(0,0,0)" stroke-linecap="butt" stroke-miterlimit="10.0"></g><g stroke-linejoin="miter" stroke-opacity="1.0" fill-opacity="1.0" stroke="rgb(0,0,0)" stroke-width="0.0" fill="rgb(0,0,0)" stroke-linecap="butt" stroke-miterlimit="10.0"><path d="M 688.2041,137.7482 l -16.9065,-19.9234 l -0.6285,9.1008 l -7.8533,4.6416 Z"/></g><g stroke-linejoin="miter" stroke-opacity="1.0" fill-opacity="1.0" stroke="rgb(0,0,0)" stroke-width="0.0" fill="rgb(0,0,0)" stroke-linecap="butt" stroke-miterlimit="10.0"><path d="M 670.6691,126.9256 l -0.5431,-0.3352 l 0.6376,-1.0330 l -0.0945,1.3682 l -0.5431,-0.3352 l -0.6376,1.0330 Z"/></g><g stroke-linejoin="miter" stroke-opacity="1.0" fill-opacity="0.0" stroke="rgb(0,0,0)" stroke-width="2.4279079146675357" fill="rgb(0,0,0)" stroke-linecap="butt" stroke-miterlimit="10.0"><path d="M 688.2041,178.0412 c -120.0893,92.7078 -286.2168,97.5449 -411.4968 11.9815"/></g><g stroke-linejoin="miter" stroke-opacity="1.0" fill-opacity="1.0" stroke="rgb(0,0,0)" stroke-width="0.0" fill="rgb(0,0,0)" stroke-linecap="butt" stroke-miterlimit="10.0"></g><g stroke-linejoin="miter" stroke-opacity="1.0" fill-opacity="1.0" stroke="rgb(0,0,0)" stroke-width="0.0" fill="rgb(0,0,0)" stroke-linecap="butt" stroke-miterlimit="10.0"></g><g stroke-linejoin="miter" stroke-opacity="1.0" fill-opacity="1.0" stroke="rgb(0,0,0)" stroke-width="0.0" fill="rgb(0,0,0)" stroke-linecap="butt" stroke-miterlimit="10.0"><path d="M 259.1643,178.0412 l 15.9675,20.6836 l 1.0485,-9.0620 l 8.0595,-4.2737 Z"/></g><g stroke-linejoin="miter" stroke-opacity="1.0" fill-opacity="1.0" stroke="rgb(0,0,0)" stroke-width="0.0" fill="rgb(0,0,0)" stroke-linecap="butt" stroke-miterlimit="10.0"><path d="M 276.1803,189.6628 l 0.5270,0.3599 l -0.6847,1.0025 l 0.1576,-1.3624 l 0.5270,0.3599 l 0.6847,-1.0025 Z"/></g></svg>