<?xml version="1.0" encoding="UTF-8"?>
<!DOCTYPE svg PUBLIC "-//W3C//DTD SVG 1.1//EN"
    "http://www.w3.org/Graphics/SVG/1.1/DTD/svg11.dtd"><svg xmlns="http://www.w3.org/2000/svg" height="260.8696" stroke-opacity="1" viewBox="0 0 1000 261" font-size="1" width="1000.0000" xmlns:xlink="http://www.w3.org/1999/xlink" stroke="rgb(0,0,0)" version="1.1"><defs></defs><g stroke-linejoin="miter" stroke-opacity="1.0" fill-opacity="0.0" stroke="rgb(0,0,0)" stroke-width="2.043015673820997" fill="rgb(0,0,0)" stroke-linecap="butt" stroke-miterlimit="10.0"><path d="M 869.5652,130.4348 c 0.0000,-24.0124 -19.4659,-43.4783 -43.4783 -43.4783c -24.0124,-0.0000 -43.4783,19.4659 -43.4783 43.4783c -0.0000,24.0124 19.4659,43.4783 43.4783 43.4783c 24.0124,0.0000 43.4783,-19.4659 43.4783 -43.4783Z"/></g><g stroke-linejoin="miter" stroke-opacity="1.0" fill-opacity="1.0" font-size="18.0px" stroke="rgb(0,0,0)" stroke-width="2.043015673820997" fill="rgb(0,0,0)" stroke-linecap="butt" stroke-miterlimit="10.0"><text dominant-baseline="middle" transform="matrix(1.0000,0.0000,0.0000,1.0000,826.0870,130.4348)" stroke="none" text-anchor="middle">Close</text></g><g stroke-linejoin="miter" stroke-opacity="1.0" fill-opacity="0.0" stroke="rgb(0,0,0)" stroke-width="2.043015673820997" fill="rgb(0,0,0)" stroke-linecap="butt" stroke-miterlimit="10.0"><path d="M 860.8696,130.4348 c 0.0000,-19.2099 -15.5727,-34.7826 -34.7826 -34.7826c -19.2099,-0.0000 -34.7826,15.5727 -34.7826 34.7826c -0.0000,19.2099 15.5727,34.7826 34.7826 34.7826c 19.2099,0.0000 34.7826,-15.5727 34.7826 -34.7826Z"/></g><g stroke-linejoin="miter" stroke-opacity="1.0" fill-opacity="1.0" font-size="16.0px" stroke="rgb(0,0,0)" stroke-width="2.043015673820997" fill="rgb(0,0,0)" stroke-linecap="butt" stroke-miterlimit="10.0"><text dominant-baseline="text-after-edge" transform="matrix(1.0000,0.0000,0.0000,1.0000,717.3913,130.4348)" stroke="none" text-anchor="middle">close</text></g><g stroke-linejoin="miter" stroke-opacity="1.0" fill-opacity="1.0" font-size="16.0px" stroke="rgb(0,0,0)" stroke-width="2.043015673820997" fill="rgb(0,0,0)" stroke-linecap="butt" stroke-miterlimit="10.0"><text dominant-baseline="middle" transform="matrix(1.0000,0.0000,0.0000,1.0000,608.6957,65.2174)" stroke="none" text-anchor="middle">broadcast</text></g><g stroke-linejoin="miter" stroke-opacity="1.0" fill-opacity="1.0" font-size="16.0px" stroke="rgb(0,0,0)" stroke-width="2.043015673820997" fill="rgb(0,0,0)" stroke-linecap="butt" stroke-miterlimit="10.0"><text dominant-baseline="middle" transform="matrix(1.0000,0.0000,0.0000,1.0000,608.6957,195.6522)" stroke="none" text-anchor="middle">list_users</text></g><g stroke-linejoin="miter" stroke-opacity="1.0" fill-opacity="0.0" font-size="16.0px" stroke="rgb(0,0,0)" stroke-width="2.043015673820997" fill="rgb(0,0,0)" stroke-linecap="butt" stroke-miterlimit="10.0"><path d="M 652.1739,130.4348 c 0.0000,-24.0124 -19.4659,-43.4783 -43.4783 -43.4783c -24.0124,-0.0000 -43.4783,19.4659 -43.4783 43.4783c -0.0000,24.0124 19.4659,43.4783 43.4783 43.4783c 24.0124,0.0000 43.4783,-19.4659 43.4783 -43.4783Z"/></g><g stroke-linejoin="miter" stroke-opacity="1.0" fill-opacity="1.0" font-size="18.0px" stroke="rgb(0,0,0)" stroke-width="2.043015673820997" fill="rgb(0,0,0)" stroke-linecap="butt" stroke-miterlimit="10.0"><text dominant-baseline="middle" transform="matrix(1.0000,0.0000,0.0000,1.0000,608.6957,130.4348)" stroke="none" text-anchor="middle">Handle</text></g><g stroke-linejoin="miter" stroke-opacity="1.0" fill-opacity="0.0" font-size="16.0px" stroke="rgb(0,0,0)" stroke-width="2.043015673820997" fill="rgb(0,0,0)" stroke-linecap="butt" stroke-miterlimit="10.0"><path d="M 592.0529,170.6140 c -15.6497,6.5404 -23.0343,24.5290 -16.4939 40.1787c 6.5404,15.6497 24.5290,23.0343 40.1787 16.4939c 15.6497,-6.5404 23.0343,-24.5290 16.4939 -40.1787"/></g><g stroke-linejoin="miter" stroke-opacity="1.0" fill-opacity="1.0" font-size="16.0px" stroke="rgb(0,0,0)" stroke-width="0.0" fill="rgb(0,0,0)" stroke-linecap="butt" stroke-miterlimit="10.0"></g><g stroke-linejoin="miter" stroke-opacity="1.0" fill-opacity="1.0" font-size="16.0px" stroke="rgb(0,0,0)" stroke-width="0.0" fill="rgb(0,0,0)" stroke-linecap="butt" stroke-miterlimit="10.0"></g><g stroke-linejoin="miter" stroke-opacity="1.0" fill-opacity="1.0" font-size="16.0px" stroke="rgb(0,0,0)" stroke-width="0.0" fill="rgb(0,0,0)" stroke-linecap="butt" stroke-miterlimit="10.0"><path d="M 625.3384,170.6140 l 1.7944,21.9143 l 4.8917,-5.9158 l 7.6465,0.6759 Z"/></g><g stroke-linejoin="miter" stroke-opacity="1.0" fill-opacity="1.0" font-size="16.0px" stroke="rgb(0,0,0)" stroke-width="0.0" fill="rgb(0,0,0)" stroke-linecap="butt" stroke-miterlimit="10.0"><path d="M 632.0245,186.6124 l 0.2071,0.4955 l -0.9425,0.3939 l 0.7354,-0.8894 l 0.2071,0.4955 l 0.9425,-0.3939 Z"/></g><g stroke-linejoin="miter" stroke-opacity="1.0" fill-opacity="0.0" font-size="16.0px" stroke="rgb(0,0,0)" stroke-width="2.043015673820997" fill="rgb(0,0,0)" stroke-linecap="butt" stroke-miterlimit="10.0"><path d="M 625.3384,90.2556 c 15.6497,-6.5404 23.0343,-24.5290 16.4939 -40.1787c -6.5404,-15.6497 -24.5290,-23.0343 -40.1787 -16.4939c -15.6497,6.5404 -23.0343,24.5290 -16.4939 40.1787"/></g><g stroke-linejoin="miter" stroke-opacity="1.0" fill-opacity="1.0" font-size="16.0px" stroke="rgb(0,0,0)" stroke-width="0.0" fill="rgb(0,0,0)" stroke-linecap="butt" stroke-miterlimit="10.0"></g><g stroke-linejoin="miter" stroke-opacity="1.0" fill-opacity="1.0" font-size="16.0px" stroke="rgb(0,0,0)" stroke-width="0.0" fill="rgb(0,0,0)" stroke-linecap="butt" stroke-miterlimit="10.0"></g><g stroke-linejoin="miter" stroke-opacity="1.0" fill-opacity="1.0" font-size="16.0px" stroke="rgb(0,0,0)" stroke-width="0.0" fill="rgb(0,0,0)" stroke-linecap="butt" stroke-miterlimit="10.0"><path d="M 592.0529,90.2556 l -1.7944,-21.9143 l -4.8917,5.9158 l -7.6465,-0.6759 Z"/></g><g stroke-linejoin="miter" stroke-opacity="1.0" fill-opacity="1.0" font-size="16.0px" stroke="rgb(0,0,0)" stroke-width="0.0" fill="rgb(0,0,0)" stroke-linecap="butt" stroke-miterlimit="10.0"><path d="M 585.3668,74.2572 l -0.2071,-0.4955 l 0.9425,-0.3939 l -0.7354,0.8894 l -0.2071,-0.4955 l -0.9425,0.3939 Z"/></g><g stroke-linejoin="miter" stroke-opacity="1.0" fill-opacity="1.0" font-size="16.0px" stroke="rgb(0,0,0)" stroke-width="2.043015673820997" fill="rgb(0,0,0)" stroke-linecap="butt" stroke-miterlimit="10.0"><text dominant-baseline="text-after-edge" transform="matrix(1.0000,0.0000,0.0000,1.0000,500.0000,130.4348)" stroke="none" text-anchor="middle">identify</text></g><g stroke-linejoin="miter" stroke-opacity="1.0" fill-opacity="0.0" stroke="rgb(0,0,0)" stroke-width="2.043015673820997" fill="rgb(0,0,0)" stroke-linecap="butt" stroke-miterlimit="10.0"><path d="M 434.7826,130.4348 c 0.0000,-24.0124 -19.4659,-43.4783 -43.4783 -43.4783c -24.0124,-0.0000 -43.4783,19.4659 -43.4783 43.4783c -0.0000,24.0124 19.4659,43.4783 43.4783 43.4783c 24.0124,0.0000 43.4783,-19.4659 43.4783 -43.4783Z"/></g><g stroke-linejoin="miter" stroke-opacity="1.0" fill-opacity="1.0" font-size="18.0px" stroke="rgb(0,0,0)" stroke-width="2.043015673820997" fill="rgb(0,0,0)" stroke-linecap="butt" stroke-miterlimit="10.0"><text dominant-baseline="middle" transform="matrix(1.0000,0.0000,0.0000,1.0000,391.3043,130.4348)" stroke="none" text-anchor="middle">Connected</text></g><g stroke-linejoin="miter" stroke-opacity="1.0" fill-opacity="0.0" stroke="rgb(0,0,0)" stroke-width="2.043015673820997" fill="rgb(0,0,0)" stroke-linecap="butt" stroke-miterlimit="10.0"><path d="M 431.4835,113.7920 c 34.2868,-29.1780 83.4624,-32.9598 121.8075 -9.3676"/></g><g stroke-linejoin="miter" stroke-opacity="1.0" fill-opacity="1.0" stroke="rgb(0,0,0)" stroke-width="0.0" fill="rgb(0,0,0)" stroke-linecap="butt" stroke-miterlimit="10.0"></g><g stroke-linejoin="miter" stroke-opacity="1.0" fill-opacity="1.0" stroke="rgb(0,0,0)" stroke-width="0.0" fill="rgb(0,0,0)" stroke-linecap="butt" stroke-miterlimit="10.0"></g><g stroke-linejoin="miter" stroke-opacity="1.0" fill-opacity="1.0" stroke="rgb(0,0,0)" stroke-width="0.0" fill="rgb(0,0,0)" stroke-linecap="butt" stroke-miterlimit="10.0"><path d="M 568.5165,113.7920 l -14.2499,-16.7450 l -0.5181,7.6588 l -6.6029,3.9151 Z"/></g><g stroke-linejoin="miter" stroke-opacity="1.0" fill-opacity="1.0" stroke="rgb(0,0,0)" stroke-width="0.0" fill="rgb(0,0,0)" stroke-linecap="butt" stroke-miterlimit="10.0"><path d="M 553.7484,104.7058 l -0.4574,-0.2814 l 0.5353,-0.8700 l -0.0779,1.1514 l -0.4574,-0.2814 l -0.5353,0.8700 Z"/></g><g stroke-linejoin="miter" stroke-opacity="1.0" fill-opacity="0.0" stroke="rgb(0,0,0)" stroke-width="2.043015673820997" fill="rgb(0,0,0)" stroke-linecap="butt" stroke-miterlimit="10.0"><path d="M 648.8748,113.7920 c 34.2868,-29.1780 83.4624,-32.9598 121.8075 -9.3676"/></g><g stroke-linejoin="miter" stroke-opacity="1.0" fill-opacity="1.0" stroke="rgb(0,0,0)" stroke-width="0.0" fill="rgb(0,0,0)" stroke-linecap="butt" stroke-miterlimit="10.0"></g><g stroke-linejoin="miter" stroke-opacity="1.0" fill-opacity="1.0" stroke="rgb(0,0,0)" stroke-width="0.0" fill="rgb(0,0,0)" stroke-linecap="butt" stroke-miterlimit="10.0"></g><g stroke-linejoin="miter" stroke-opacity="1.0" fill-opacity="1.0" stroke="rgb(0,0,0)" stroke-width="0.0" fill="rgb(0,0,0)" stroke-linecap="butt" stroke-miterlimit="10.0"><path d="M 785.9078,113.7920 l -14.2499,-16.7450 l -0.5181,7.6588 l -6.6029,3.9151 Z"/></g><g stroke-linejoin="miter" stroke-opacity="1.0" fill-opacity="1.0" stroke="rgb(0,0,0)" stroke-width="0.0" fill="rgb(0,0,0)" stroke-linecap="butt" stroke-miterlimit="10.0"><path d="M 771.1398,104.7058 l -0.4574,-0.2814 l 0.5353,-0.8700 l -0.0779,1.1514 l -0.4574,-0.2814 l -0.5353,0.8700 Z"/></g><g stroke-linejoin="miter" stroke-opacity="1.0" fill-opacity="1.0" font-size="16.0px" stroke="rgb(0,0,0)" stroke-width="2.043015673820997" fill="rgb(0,0,0)" stroke-linecap="butt" stroke-miterlimit="10.0"><text dominant-baseline="middle" transform="matrix(1.0000,0.0000,0.0000,1.0000,173.9130,65.2174)" stroke="none" text-anchor="middle">connect</text></g><g stroke-linejoin="miter" stroke-opacity="1.0" fill-opacity="0.0" font-size="16.0px" stroke="rgb(0,0,0)" stroke-width="2.043015673820997" fill="rgb(0,0,0)" stroke-linecap="butt" stroke-miterlimit="10.0"><path d="M 217.3913,130.4348 c 0.0000,-24.0124 -19.4659,-43.4783 -43.4783 -43.4783c -24.0124,-0.0000 -43.4783,19.4659 -43.4783 43.4783c -0.0000,24.0124 19.4659,43.4783 43.4783 43.4783c 24.0124,0.0000 43.4783,-19.4659 43.4783 -43.4783Z"/></g><g stroke-linejoin="miter" stroke-opacity="1.0" fill-opacity="1.0" font-size="18.0px" stroke="rgb(0,0,0)" stroke-width="2.043015673820997" fill="rgb(0,0,0)" stroke-linecap="butt" stroke-miterlimit="10.0"><text dominant-baseline="middle" transform="matrix(1.0000,0.0000,0.0000,1.0000,173.9130,130.4348)" stroke="none" text-anchor="middle">Listen</text></g><g stroke-linejoin="miter" stroke-opacity="1.0" fill-opacity="0.0" font-size="16.0px" stroke="rgb(0,0,0)" stroke-width="2.043015673820997" fill="rgb(0,0,0)" stroke-linecap="butt" stroke-miterlimit="10.0"><path d="M 190.5558,90.2556 c 15.6497,-6.5404 23.0343,-24.5290 16.4939 -40.1787c -6.5404,-15.6497 -24.5290,-23.0343 -40.1787 -16.4939c -15.6497,6.5404 -23.0343,24.5290 -16.4939 40.1787"/></g><g stroke-linejoin="miter" stroke-opacity="1.0" fill-opacity="1.0" font-size="16.0px" stroke="rgb(0,0,0)" stroke-width="0.0" fill="rgb(0,0,0)" stroke-linecap="butt" stroke-miterlimit="10.0"></g><g stroke-linejoin="miter" stroke-opacity="1.0" fill-opacity="1.0" font-size="16.0px" stroke="rgb(0,0,0)" stroke-width="0.0" fill="rgb(0,0,0)" stroke-linecap="butt" stroke-miterlimit="10.0"></g><g stroke-linejoin="miter" stroke-opacity="1.0" fill-opacity="1.0" font-size="16.0px" stroke="rgb(0,0,0)" stroke-width="0.0" fill="rgb(0,0,0)" stroke-linecap="butt" stroke-miterlimit="10.0"><path d="M 157.2703,90.2556 l -1.7944,-21.9143 l -4.8917,5.9158 l -7.6465,-0.6759 Z"/></g><g stroke-linejoin="miter" stroke-opacity="1.0" fill-opacity="1.0" font-size="16.0px" stroke="rgb(0,0,0)" stroke-width="0.0" fill="rgb(0,0,0)" stroke-linecap="butt" stroke-miterlimit="10.0"><path d="M 150.5842,74.2572 l -0.2071,-0.4955 l 0.9425,-0.3939 l -0.7354,0.8894 l -0.2071,-0.4955 l -0.9425,0.3939 Z"/></g></svg>