<svg id="Layer_1" enable-background="new 0 0 496 496" height="512" viewBox="0 0 496 496" width="512" xmlns="http://www.w3.org/2000/svg"><path d="m474.39 186.01-6.9 5.01c1.79-2.24 4.16-3.99 6.9-5.01zm-155.39-18.01c0 39.149-31.851 71-71 71s-71-31.851-71-71 31.851-71 71-71 71 31.851 71 71zm-29.686-32.314c-6.248-6.248-16.379-6.248-22.627 0l-28.687 28.687-3.687-3.687c-6.248-6.248-16.379-6.248-22.627 0-6.249 6.249-6.249 16.379 0 22.628l15 15c6.248 6.248 16.379 6.248 22.627 0l40-40c6.25-6.249 6.25-16.379.001-22.628zm126.686-87.686v180.35c-32.639 23.674-91.25 66.172-158.58 114.99-5.63 4.11-13.21 4.11-18.83.01-148.658-108.484-117.176-85.507-158.59-115.74v-179.61c0-26.47 21.53-48 48-48h240c26.47 0 48 21.53 48 48zm-65 120c0-56.794-46.206-103-103-103s-103 46.206-103 103 46.206 103 103 103 103-46.206 103-103zm-43.39 138.95 3.36-2.44c-1.2.64-2.33 1.46-3.36 2.44zm15.744 39.033c-3.65-3.65-9.409-4.103-13.588-1.072l-33.536 24.319c-16.881 12.295-39.594 12.298-56.49-.02l-33.389-24.37c-4.18-3.051-9.955-2.605-13.615 1.053-22.454 22.452-86.969 86.961-132.19 132.181-6.478 6.478-2.199 17.926 7.454 17.926h400c9.639 0 13.941-11.439 7.454-17.926-45.195-45.193-109.683-109.676-132.1-132.091zm-180.344-32.766-126.321-92.197c-6.939-5.065-16.689-.105-16.689 8.486 0 .182 0 218.534.001 218.716.042 9.261 11.376 13.781 17.925 7.232 38.724-38.726 103.041-103.048 126.325-126.334 4.558-4.558 3.966-12.103-1.241-15.903zm301.357-169.97c-5.04-5.04-13.657-1.47-13.657 5.657v53.596c0 6.533 7.402 10.315 12.691 6.48 31.339-22.72 30.899-22.47 30.999-22.47 4.204-3.048 4.423-8.808 1.04-12.191zm-392.734 0-30.485 30.485c-3.472 3.472-3.021 9.227.944 12.122 18.003 13.143 16.869 12.316 30.478 22.246 5.286 3.857 12.719.084 12.719-6.46v-52.736c.001-7.128-8.616-10.697-13.656-5.657zm301.592 170.156c-5.229 3.792-5.836 11.357-1.269 15.924 23.42 23.422 87.291 87.299 126.118 126.127 6.48 6.48 17.926 2.196 17.926-7.454v-217.544c0-8.576-9.728-13.533-16.672-8.499-18.79 13.623-19.517 14.151-126.103 91.446z"/></svg>