<?xml version="1.0" encoding="UTF-8"?>
<!DOCTYPE svg PUBLIC "-//W3C//DTD SVG 1.1//EN"
    "http://www.w3.org/Graphics/SVG/1.1/DTD/svg11.dtd"><svg xmlns="http://www.w3.org/2000/svg" height="500.0000" stroke-opacity="1" viewBox="0 0 500 500" font-size="1" width="500.0000" xmlns:xlink="http://www.w3.org/1999/xlink" stroke="rgb(0,0,0)" version="1.1"><defs></defs><defs></defs><g stroke-linejoin="miter" stroke-opacity="1.0" fill-opacity="0.0" stroke="rgb(0,0,0)" stroke-width="1.9999999999999998" fill="rgb(0,0,0)" stroke-linecap="butt" stroke-miterlimit="10.0"><path d="M 129.8790,96.6909 c 0.0000,-18.3293 -14.8588,-33.1881 -33.1881 -33.1881c -18.3293,-0.0000 -33.1881,14.8588 -33.1881 33.1881c -0.0000,18.3293 14.8588,33.1881 33.1881 33.1881c 18.3293,0.0000 33.1881,-14.8588 33.1881 -33.1881Z"/></g><defs></defs><g stroke-linejoin="miter" stroke-opacity="1.0" fill-opacity="1.0" font-size="33.18812500087099px" stroke="rgb(0,0,0)" stroke-width="1.9999999999999998" fill="rgb(0,0,0)" stroke-linecap="butt" stroke-miterlimit="10.0"><text dominant-baseline="middle" transform="matrix(1.0000,0.0000,0.0000,1.0000,96.6909,96.6909)" stroke="none" text-anchor="middle">5</text></g><defs></defs><g stroke-linejoin="miter" stroke-opacity="1.0" fill-opacity="0.0" stroke="rgb(0,0,0)" stroke-width="1.9999999999999998" fill="rgb(0,0,0)" stroke-linecap="butt" stroke-miterlimit="10.0"><path d="M 66.3763,250.0000 c 0.0000,-18.3293 -14.8588,-33.1881 -33.1881 -33.1881c -18.3293,-0.0000 -33.1881,14.8588 -33.1881 33.1881c -0.0000,18.3293 14.8588,33.1881 33.1881 33.1881c 18.3293,0.0000 33.1881,-14.8588 33.1881 -33.1881Z"/></g><defs></defs><g stroke-linejoin="miter" stroke-opacity="1.0" fill-opacity="1.0" font-size="33.18812500087099px" stroke="rgb(0,0,0)" stroke-width="1.9999999999999998" fill="rgb(0,0,0)" stroke-linecap="butt" stroke-miterlimit="10.0"><text dominant-baseline="middle" transform="matrix(1.0000,0.0000,0.0000,1.0000,33.1881,250.0000)" stroke="none" text-anchor="middle">1</text></g><defs></defs><g stroke-linejoin="miter" stroke-opacity="1.0" fill-opacity="0.0" stroke="rgb(0,0,0)" stroke-width="1.9999999999999998" fill="rgb(0,0,0)" stroke-linecap="butt" stroke-miterlimit="10.0"><path d="M 129.8790,403.3091 c 0.0000,-18.3293 -14.8588,-33.1881 -33.1881 -33.1881c -18.3293,-0.0000 -33.1881,14.8588 -33.1881 33.1881c -0.0000,18.3293 14.8588,33.1881 33.1881 33.1881c 18.3293,0.0000 33.1881,-14.8588 33.1881 -33.1881Z"/></g><defs></defs><g stroke-linejoin="miter" stroke-opacity="1.0" fill-opacity="1.0" font-size="33.18812500087099px" stroke="rgb(0,0,0)" stroke-width="1.9999999999999998" fill="rgb(0,0,0)" stroke-linecap="butt" stroke-miterlimit="10.0"><text dominant-baseline="middle" transform="matrix(1.0000,0.0000,0.0000,1.0000,96.6909,403.3091)" stroke="none" text-anchor="middle">2</text></g><defs></defs><g stroke-linejoin="miter" stroke-opacity="1.0" fill-opacity="0.0" stroke="rgb(0,0,0)" stroke-width="1.9999999999999998" fill="rgb(0,0,0)" stroke-linecap="butt" stroke-miterlimit="10.0"><path d="M 283.1881,466.8119 c 0.0000,-18.3293 -14.8588,-33.1881 -33.1881 -33.1881c -18.3293,-0.0000 -33.1881,14.8588 -33.1881 33.1881c -0.0000,18.3293 14.8588,33.1881 33.1881 33.1881c 18.3293,0.0000 33.1881,-14.8588 33.1881 -33.1881Z"/></g><defs></defs><g stroke-linejoin="miter" stroke-opacity="1.0" fill-opacity="1.0" font-size="33.18812500087099px" stroke="rgb(0,0,0)" stroke-width="1.9999999999999998" fill="rgb(0,0,0)" stroke-linecap="butt" stroke-miterlimit="10.0"><text dominant-baseline="middle" transform="matrix(1.0000,0.0000,0.0000,1.0000,250.0000,466.8119)" stroke="none" text-anchor="middle">4</text></g><defs></defs><g stroke-linejoin="miter" stroke-opacity="1.0" fill-opacity="0.0" stroke="rgb(0,0,0)" stroke-width="1.9999999999999998" fill="rgb(0,0,0)" stroke-linecap="butt" stroke-miterlimit="10.0"><path d="M 436.4973,403.3091 c 0.0000,-18.3293 -14.8588,-33.1881 -33.1881 -33.1881c -18.3293,-0.0000 -33.1881,14.8588 -33.1881 33.1881c -0.0000,18.3293 14.8588,33.1881 33.1881 33.1881c 18.3293,0.0000 33.1881,-14.8588 33.1881 -33.1881Z"/></g><defs></defs><g stroke-linejoin="miter" stroke-opacity="1.0" fill-opacity="1.0" font-size="33.18812500087099px" stroke="rgb(0,0,0)" stroke-width="1.9999999999999998" fill="rgb(0,0,0)" stroke-linecap="butt" stroke-miterlimit="10.0"><text dominant-baseline="middle" transform="matrix(1.0000,0.0000,0.0000,1.0000,403.3091,403.3091)" stroke="none" text-anchor="middle">6</text></g><defs></defs><g stroke-linejoin="miter" stroke-opacity="1.0" fill-opacity="0.0" stroke="rgb(0,0,0)" stroke-width="1.9999999999999998" fill="rgb(0,0,0)" stroke-linecap="butt" stroke-miterlimit="10.0"><path d="M 500.0000,250.0000 c 0.0000,-18.3293 -14.8588,-33.1881 -33.1881 -33.1881c -18.3293,-0.0000 -33.1881,14.8588 -33.1881 33.1881c -0.0000,18.3293 14.8588,33.1881 33.1881 33.1881c 18.3293,0.0000 33.1881,-14.8588 33.1881 -33.1881Z"/></g><defs></defs><g stroke-linejoin="miter" stroke-opacity="1.0" fill-opacity="1.0" font-size="33.18812500087099px" stroke="rgb(0,0,0)" stroke-width="1.9999999999999998" fill="rgb(0,0,0)" stroke-linecap="butt" stroke-miterlimit="10.0"><text dominant-baseline="middle" transform="matrix(1.0000,0.0000,0.0000,1.0000,466.8119,250.0000)" stroke="none" text-anchor="middle">3</text></g><defs></defs><g stroke-linejoin="miter" stroke-opacity="1.0" fill-opacity="0.0" stroke="rgb(0,0,0)" stroke-width="1.9999999999999998" fill="rgb(0,0,0)" stroke-linecap="butt" stroke-miterlimit="10.0"><path d="M 436.4973,96.6909 c 0.0000,-18.3293 -14.8588,-33.1881 -33.1881 -33.1881c -18.3293,-0.0000 -33.1881,14.8588 -33.1881 33.1881c -0.0000,18.3293 14.8588,33.1881 33.1881 33.1881c 18.3293,0.0000 33.1881,-14.8588 33.1881 -33.1881Z"/></g><defs></defs><g stroke-linejoin="miter" stroke-opacity="1.0" fill-opacity="1.0" font-size="33.18812500087099px" stroke="rgb(0,0,0)" stroke-width="1.9999999999999998" fill="rgb(0,0,0)" stroke-linecap="butt" stroke-miterlimit="10.0"><text dominant-baseline="middle" transform="matrix(1.0000,0.0000,0.0000,1.0000,403.3091,96.6909)" stroke="none" text-anchor="middle">0</text></g><defs></defs><g stroke-linejoin="miter" stroke-opacity="1.0" fill-opacity="0.0" stroke="rgb(0,0,0)" stroke-width="1.9999999999999998" fill="rgb(0,0,0)" stroke-linecap="butt" stroke-miterlimit="10.0"><path d="M 283.1881,33.1881 c 0.0000,-18.3293 -14.8588,-33.1881 -33.1881 -33.1881c -18.3293,-0.0000 -33.1881,14.8588 -33.1881 33.1881c -0.0000,18.3293 14.8588,33.1881 33.1881 33.1881c 18.3293,0.0000 33.1881,-14.8588 33.1881 -33.1881Z"/></g><defs></defs><g stroke-linejoin="miter" stroke-opacity="1.0" fill-opacity="1.0" font-size="33.18812500087099px" stroke="rgb(0,0,0)" stroke-width="1.9999999999999998" fill="rgb(0,0,0)" stroke-linecap="butt" stroke-miterlimit="10.0"><text dominant-baseline="middle" transform="matrix(1.0000,0.0000,0.0000,1.0000,250.0000,33.1881)" stroke="none" text-anchor="middle">7</text></g><defs></defs><g stroke-linejoin="miter" stroke-opacity="1.0" fill-opacity="0.0" stroke="rgb(0,0,0)" stroke-width="1.9999999999999998" fill="rgb(0,0,0)" stroke-linecap="butt" stroke-miterlimit="10.0"><path d="M 362.0147,113.7956 l -271.3642,112.4027 "/></g><defs></defs><g stroke-linejoin="miter" stroke-opacity="1.0" fill-opacity="1.0" stroke="rgb(0,0,0)" stroke-width="0.0" fill="rgb(0,0,0)" stroke-linecap="butt" stroke-miterlimit="10.0"></g><defs></defs><g stroke-linejoin="miter" stroke-opacity="1.0" fill-opacity="1.0" stroke="rgb(0,0,0)" stroke-width="0.0" fill="rgb(0,0,0)" stroke-linecap="butt" stroke-miterlimit="10.0"></g><defs></defs><g stroke-linejoin="miter" stroke-opacity="1.0" fill-opacity="1.0" stroke="rgb(0,0,0)" stroke-width="0.0" fill="rgb(0,0,0)" stroke-linecap="butt" stroke-miterlimit="10.0"><path d="M 74.4826,232.8953 l 21.4583,-1.6888 l -5.7761,-4.8070 l 0.6853,-7.4834 Z"/></g><defs></defs><g stroke-linejoin="miter" stroke-opacity="1.0" fill-opacity="1.0" stroke="rgb(0,0,0)" stroke-width="0.0" fill="rgb(0,0,0)" stroke-linecap="butt" stroke-miterlimit="10.0"><path d="M 90.1648,226.3995 l 0.4857,-0.2012 l 0.3827,0.9239 l -0.8684,-0.7227 l 0.4857,-0.2012 l -0.3827,-0.9239 Z"/></g><defs></defs><g stroke-linejoin="miter" stroke-opacity="1.0" fill-opacity="0.0" stroke="rgb(0,0,0)" stroke-width="1.9999999999999998" fill="rgb(0,0,0)" stroke-linecap="butt" stroke-miterlimit="10.0"><path d="M 435.2126,281.5993 l -141.2390,141.2390 "/></g><defs></defs><g stroke-linejoin="miter" stroke-opacity="1.0" fill-opacity="1.0" stroke="rgb(0,0,0)" stroke-width="0.0" fill="rgb(0,0,0)" stroke-linecap="butt" stroke-miterlimit="10.0"></g><defs></defs><g stroke-linejoin="miter" stroke-opacity="1.0" fill-opacity="1.0" stroke="rgb(0,0,0)" stroke-width="0.0" fill="rgb(0,0,0)" stroke-linecap="butt" stroke-miterlimit="10.0"></g><defs></defs><g stroke-linejoin="miter" stroke-opacity="1.0" fill-opacity="1.0" stroke="rgb(0,0,0)" stroke-width="0.0" fill="rgb(0,0,0)" stroke-linecap="butt" stroke-miterlimit="10.0"><path d="M 281.5993,435.2126 l 19.1786,-9.7720 l -7.1760,-2.2306 l -2.2306,-7.1760 Z"/></g><defs></defs><g stroke-linejoin="miter" stroke-opacity="1.0" fill-opacity="1.0" stroke="rgb(0,0,0)" stroke-width="0.0" fill="rgb(0,0,0)" stroke-linecap="butt" stroke-miterlimit="10.0"><path d="M 293.6019,423.2100 l 0.3717,-0.3717 l 0.7071,0.7071 l -1.0789,-0.3354 l 0.3717,-0.3717 l -0.7071,-0.7071 Z"/></g><defs></defs><g stroke-linejoin="miter" stroke-opacity="1.0" fill-opacity="0.0" stroke="rgb(0,0,0)" stroke-width="1.9999999999999998" fill="rgb(0,0,0)" stroke-linecap="butt" stroke-miterlimit="10.0"><path d="M 232.8953,425.5174 l -112.4027,-271.3642 "/></g><defs></defs><g stroke-linejoin="miter" stroke-opacity="1.0" fill-opacity="1.0" stroke="rgb(0,0,0)" stroke-width="0.0" fill="rgb(0,0,0)" stroke-linecap="butt" stroke-miterlimit="10.0"></g><defs></defs><g stroke-linejoin="miter" stroke-opacity="1.0" fill-opacity="1.0" stroke="rgb(0,0,0)" stroke-width="0.0" fill="rgb(0,0,0)" stroke-linecap="butt" stroke-miterlimit="10.0"></g><defs></defs><g stroke-linejoin="miter" stroke-opacity="1.0" fill-opacity="1.0" stroke="rgb(0,0,0)" stroke-width="0.0" fill="rgb(0,0,0)" stroke-linecap="butt" stroke-miterlimit="10.0"><path d="M 113.7956,137.9853 l 1.6888,21.4583 l 4.8070,-5.7761 l 7.4834,0.6853 Z"/></g><defs></defs><g stroke-linejoin="miter" stroke-opacity="1.0" fill-opacity="1.0" stroke="rgb(0,0,0)" stroke-width="0.0" fill="rgb(0,0,0)" stroke-linecap="butt" stroke-miterlimit="10.0"><path d="M 120.2914,153.6675 l 0.2012,0.4857 l -0.9239,0.3827 l 0.7227,-0.8684 l 0.2012,0.4857 l 0.9239,-0.3827 Z"/></g><defs></defs><g stroke-linejoin="miter" stroke-opacity="1.0" fill-opacity="0.0" stroke="rgb(0,0,0)" stroke-width="1.9999999999999998" fill="rgb(0,0,0)" stroke-linecap="butt" stroke-miterlimit="10.0"><path d="M 137.9853,386.2044 l 271.3642,-112.4027 "/></g><defs></defs><g stroke-linejoin="miter" stroke-opacity="1.0" fill-opacity="1.0" stroke="rgb(0,0,0)" stroke-width="0.0" fill="rgb(0,0,0)" stroke-linecap="butt" stroke-miterlimit="10.0"></g><defs></defs><g stroke-linejoin="miter" stroke-opacity="1.0" fill-opacity="1.0" stroke="rgb(0,0,0)" stroke-width="0.0" fill="rgb(0,0,0)" stroke-linecap="butt" stroke-miterlimit="10.0"></g><defs></defs><g stroke-linejoin="miter" stroke-opacity="1.0" fill-opacity="1.0" stroke="rgb(0,0,0)" stroke-width="0.0" fill="rgb(0,0,0)" stroke-linecap="butt" stroke-miterlimit="10.0"><path d="M 425.5174,267.1047 l -21.4583,1.6888 l 5.7761,4.8070 l -0.6853,7.4834 Z"/></g><defs></defs><g stroke-linejoin="miter" stroke-opacity="1.0" fill-opacity="1.0" stroke="rgb(0,0,0)" stroke-width="0.0" fill="rgb(0,0,0)" stroke-linecap="butt" stroke-miterlimit="10.0"><path d="M 409.8352,273.6005 l -0.4857,0.2012 l -0.3827,-0.9239 l 0.8684,0.7227 l -0.4857,0.2012 l 0.3827,0.9239 Z"/></g><defs></defs><g stroke-linejoin="miter" stroke-opacity="1.0" fill-opacity="0.0" stroke="rgb(0,0,0)" stroke-width="1.9999999999999998" fill="rgb(0,0,0)" stroke-linecap="butt" stroke-miterlimit="10.0"><path d="M 128.2901,128.2901 l 231.0454,231.0454 "/></g><defs></defs><g stroke-linejoin="miter" stroke-opacity="1.0" fill-opacity="1.0" stroke="rgb(0,0,0)" stroke-width="0.0" fill="rgb(0,0,0)" stroke-linecap="butt" stroke-miterlimit="10.0"></g><defs></defs><g stroke-linejoin="miter" stroke-opacity="1.0" fill-opacity="1.0" stroke="rgb(0,0,0)" stroke-width="0.0" fill="rgb(0,0,0)" stroke-linecap="butt" stroke-miterlimit="10.0"></g><defs></defs><g stroke-linejoin="miter" stroke-opacity="1.0" fill-opacity="1.0" stroke="rgb(0,0,0)" stroke-width="0.0" fill="rgb(0,0,0)" stroke-linecap="butt" stroke-miterlimit="10.0"><path d="M 371.7099,371.7099 l -9.7720,-19.1786 l -2.2306,7.1760 l -7.1760,2.2306 Z"/></g><defs></defs><g stroke-linejoin="miter" stroke-opacity="1.0" fill-opacity="1.0" stroke="rgb(0,0,0)" stroke-width="0.0" fill="rgb(0,0,0)" stroke-linecap="butt" stroke-miterlimit="10.0"><path d="M 359.7073,359.7073 l -0.3717,-0.3717 l 0.7071,-0.7071 l -0.3354,1.0789 l -0.3717,-0.3717 l -0.7071,0.7071 Z"/></g><defs></defs><g stroke-linejoin="miter" stroke-opacity="1.0" fill-opacity="0.0" stroke="rgb(0,0,0)" stroke-width="1.9999999999999998" fill="rgb(0,0,0)" stroke-linecap="butt" stroke-miterlimit="10.0"><path d="M 386.2044,362.0147 l -112.4027,-271.3642 "/></g><defs></defs><g stroke-linejoin="miter" stroke-opacity="1.0" fill-opacity="1.0" stroke="rgb(0,0,0)" stroke-width="0.0" fill="rgb(0,0,0)" stroke-linecap="butt" stroke-miterlimit="10.0"></g><defs></defs><g stroke-linejoin="miter" stroke-opacity="1.0" fill-opacity="1.0" stroke="rgb(0,0,0)" stroke-width="0.0" fill="rgb(0,0,0)" stroke-linecap="butt" stroke-miterlimit="10.0"></g><defs></defs><g stroke-linejoin="miter" stroke-opacity="1.0" fill-opacity="1.0" stroke="rgb(0,0,0)" stroke-width="0.0" fill="rgb(0,0,0)" stroke-linecap="butt" stroke-miterlimit="10.0"><path d="M 267.1047,74.4826 l 1.6888,21.4583 l 4.8070,-5.7761 l 7.4834,0.6853 Z"/></g><defs></defs><g stroke-linejoin="miter" stroke-opacity="1.0" fill-opacity="1.0" stroke="rgb(0,0,0)" stroke-width="0.0" fill="rgb(0,0,0)" stroke-linecap="butt" stroke-miterlimit="10.0"><path d="M 273.6005,90.1648 l 0.2012,0.4857 l -0.9239,0.3827 l 0.7227,-0.8684 l 0.2012,0.4857 l 0.9239,-0.3827 Z"/></g><defs></defs><g stroke-linejoin="miter" stroke-opacity="1.0" fill-opacity="0.0" stroke="rgb(0,0,0)" stroke-width="1.9999999999999998" fill="rgb(0,0,0)" stroke-linecap="butt" stroke-miterlimit="10.0"><path d="M 50.2929,291.2945 l 22.5963,54.5523 "/></g><defs></defs><g stroke-linejoin="miter" stroke-opacity="1.0" fill-opacity="1.0" stroke="rgb(0,0,0)" stroke-width="0.0" fill="rgb(0,0,0)" stroke-linecap="butt" stroke-miterlimit="10.0"></g><defs></defs><g stroke-linejoin="miter" stroke-opacity="1.0" fill-opacity="1.0" stroke="rgb(0,0,0)" stroke-width="0.0" fill="rgb(0,0,0)" stroke-linecap="butt" stroke-miterlimit="10.0"></g><defs></defs><g stroke-linejoin="miter" stroke-opacity="1.0" fill-opacity="1.0" stroke="rgb(0,0,0)" stroke-width="0.0" fill="rgb(0,0,0)" stroke-linecap="butt" stroke-miterlimit="10.0"><path d="M 79.5861,362.0147 l -1.6888,-21.4583 l -4.8070,5.7761 l -7.4834,-0.6853 Z"/></g><defs></defs><g stroke-linejoin="miter" stroke-opacity="1.0" fill-opacity="1.0" stroke="rgb(0,0,0)" stroke-width="0.0" fill="rgb(0,0,0)" stroke-linecap="butt" stroke-miterlimit="10.0"><path d="M 73.0904,346.3325 l -0.2012,-0.4857 l 0.9239,-0.3827 l -0.7227,0.8684 l -0.2012,-0.4857 l -0.9239,0.3827 Z"/></g></svg>
