<?xml version="1.0" encoding="UTF-8"?>
<!DOCTYPE svg PUBLIC "-//W3C//DTD SVG 1.1//EN"
    "http://www.w3.org/Graphics/SVG/1.1/DTD/svg11.dtd"><svg xmlns="http://www.w3.org/2000/svg" height="500.0000" stroke-opacity="1" viewBox="0 0 500 500" font-size="1" width="500.0000" xmlns:xlink="http://www.w3.org/1999/xlink" stroke="rgb(0,0,0)" version="1.1"><defs></defs><defs></defs><g stroke-linejoin="miter" stroke-opacity="1.0" fill-opacity="0.0" stroke="rgb(0,0,0)" stroke-width="1.9999999999999998" fill="rgb(0,0,0)" stroke-linecap="butt" stroke-miterlimit="10.0"><path d="M 129.8790,96.6909 c 0.0000,-18.3293 -14.8588,-33.1881 -33.1881 -33.1881c -18.3293,-0.0000 -33.1881,14.8588 -33.1881 33.1881c -0.0000,18.3293 14.8588,33.1881 33.1881 33.1881c 18.3293,0.0000 33.1881,-14.8588 33.1881 -33.1881Z"/></g><defs></defs><g stroke-linejoin="miter" stroke-opacity="1.0" fill-opacity="1.0" font-size="33.18812500087099px" stroke="rgb(0,0,0)" stroke-width="1.9999999999999998" fill="rgb(0,0,0)" stroke-linecap="butt" stroke-miterlimit="10.0"><text dominant-baseline="middle" transform="matrix(1.0000,0.0000,0.0000,1.0000,96.6909,96.6909)" stroke="none" text-anchor="middle">4</text></g><defs></defs><g stroke-linejoin="miter" stroke-opacity="1.0" fill-opacity="0.0" stroke="rgb(0,0,0)" stroke-width="1.9999999999999998" fill="rgb(0,0,0)" stroke-linecap="butt" stroke-miterlimit="10.0"><path d="M 66.3763,250.0000 c 0.0000,-18.3293 -14.8588,-33.1881 -33.1881 -33.1881c -18.3293,-0.0000 -33.1881,14.8588 -33.1881 33.1881c -0.0000,18.3293 14.8588,33.1881 33.1881 33.1881c 18.3293,0.0000 33.1881,-14.8588 33.1881 -33.1881Z"/></g><defs></defs><g stroke-linejoin="miter" stroke-opacity="1.0" fill-opacity="1.0" font-size="33.18812500087099px" stroke="rgb(0,0,0)" stroke-width="1.9999999999999998" fill="rgb(0,0,0)" stroke-linecap="butt" stroke-miterlimit="10.0"><text dominant-baseline="middle" transform="matrix(1.0000,0.0000,0.0000,1.0000,33.1881,250.0000)" stroke="none" text-anchor="middle">1</text></g><defs></defs><g stroke-linejoin="miter" stroke-opacity="1.0" fill-opacity="0.0" stroke="rgb(0,0,0)" stroke-width="1.9999999999999998" fill="rgb(0,0,0)" stroke-linecap="butt" stroke-miterlimit="10.0"><path d="M 129.8790,403.3091 c 0.0000,-18.3293 -14.8588,-33.1881 -33.1881 -33.1881c -18.3293,-0.0000 -33.1881,14.8588 -33.1881 33.1881c -0.0000,18.3293 14.8588,33.1881 33.1881 33.1881c 18.3293,0.0000 33.1881,-14.8588 33.1881 -33.1881Z"/></g><defs></defs><g stroke-linejoin="miter" stroke-opacity="1.0" fill-opacity="1.0" font-size="33.18812500087099px" stroke="rgb(0,0,0)" stroke-width="1.9999999999999998" fill="rgb(0,0,0)" stroke-linecap="butt" stroke-miterlimit="10.0"><text dominant-baseline="middle" transform="matrix(1.0000,0.0000,0.0000,1.0000,96.6909,403.3091)" stroke="none" text-anchor="middle">3</text></g><defs></defs><g stroke-linejoin="miter" stroke-opacity="1.0" fill-opacity="0.0" stroke="rgb(0,0,0)" stroke-width="1.9999999999999998" fill="rgb(0,0,0)" stroke-linecap="butt" stroke-miterlimit="10.0"><path d="M 283.1881,466.8119 c 0.0000,-18.3293 -14.8588,-33.1881 -33.1881 -33.1881c -18.3293,-0.0000 -33.1881,14.8588 -33.1881 33.1881c -0.0000,18.3293 14.8588,33.1881 33.1881 33.1881c 18.3293,0.0000 33.1881,-14.8588 33.1881 -33.1881Z"/></g><defs></defs><g stroke-linejoin="miter" stroke-opacity="1.0" fill-opacity="1.0" font-size="33.18812500087099px" stroke="rgb(0,0,0)" stroke-width="1.9999999999999998" fill="rgb(0,0,0)" stroke-linecap="butt" stroke-miterlimit="10.0"><text dominant-baseline="middle" transform="matrix(1.0000,0.0000,0.0000,1.0000,250.0000,466.8119)" stroke="none" text-anchor="middle">3</text></g><defs></defs><g stroke-linejoin="miter" stroke-opacity="1.0" fill-opacity="0.0" stroke="rgb(0,0,0)" stroke-width="1.9999999999999998" fill="rgb(0,0,0)" stroke-linecap="butt" stroke-miterlimit="10.0"><path d="M 436.4973,403.3091 c 0.0000,-18.3293 -14.8588,-33.1881 -33.1881 -33.1881c -18.3293,-0.0000 -33.1881,14.8588 -33.1881 33.1881c -0.0000,18.3293 14.8588,33.1881 33.1881 33.1881c 18.3293,0.0000 33.1881,-14.8588 33.1881 -33.1881Z"/></g><defs></defs><g stroke-linejoin="miter" stroke-opacity="1.0" fill-opacity="1.0" font-size="33.18812500087099px" stroke="rgb(0,0,0)" stroke-width="1.9999999999999998" fill="rgb(0,0,0)" stroke-linecap="butt" stroke-miterlimit="10.0"><text dominant-baseline="middle" transform="matrix(1.0000,0.0000,0.0000,1.0000,403.3091,403.3091)" stroke="none" text-anchor="middle">3</text></g><defs></defs><g stroke-linejoin="miter" stroke-opacity="1.0" fill-opacity="0.0" stroke="rgb(0,0,0)" stroke-width="1.9999999999999998" fill="rgb(0,0,0)" stroke-linecap="butt" stroke-miterlimit="10.0"><path d="M 500.0000,250.0000 c 0.0000,-18.3293 -14.8588,-33.1881 -33.1881 -33.1881c -18.3293,-0.0000 -33.1881,14.8588 -33.1881 33.1881c -0.0000,18.3293 14.8588,33.1881 33.1881 33.1881c 18.3293,0.0000 33.1881,-14.8588 33.1881 -33.1881Z"/></g><defs></defs><g stroke-linejoin="miter" stroke-opacity="1.0" fill-opacity="1.0" font-size="33.18812500087099px" stroke="rgb(0,0,0)" stroke-width="1.9999999999999998" fill="rgb(0,0,0)" stroke-linecap="butt" stroke-miterlimit="10.0"><text dominant-baseline="middle" transform="matrix(1.0000,0.0000,0.0000,1.0000,466.8119,250.0000)" stroke="none" text-anchor="middle">2</text></g><defs></defs><g stroke-linejoin="miter" stroke-opacity="1.0" fill-opacity="0.0" stroke="rgb(0,0,0)" stroke-width="1.9999999999999998" fill="rgb(0,0,0)" stroke-linecap="butt" stroke-miterlimit="10.0"><path d="M 436.4973,96.6909 c 0.0000,-18.3293 -14.8588,-33.1881 -33.1881 -33.1881c -18.3293,-0.0000 -33.1881,14.8588 -33.1881 33.1881c -0.0000,18.3293 14.8588,33.1881 33.1881 33.1881c 18.3293,0.0000 33.1881,-14.8588 33.1881 -33.1881Z"/></g><defs></defs><g stroke-linejoin="miter" stroke-opacity="1.0" fill-opacity="1.0" font-size="33.18812500087099px" stroke="rgb(0,0,0)" stroke-width="1.9999999999999998" fill="rgb(0,0,0)" stroke-linecap="butt" stroke-miterlimit="10.0"><text dominant-baseline="middle" transform="matrix(1.0000,0.0000,0.0000,1.0000,403.3091,96.6909)" stroke="none" text-anchor="middle">3</text></g><defs></defs><g stroke-linejoin="miter" stroke-opacity="1.0" fill-opacity="0.0" stroke="rgb(0,0,0)" stroke-width="1.9999999999999998" fill="rgb(0,0,0)" stroke-linecap="butt" stroke-miterlimit="10.0"><path d="M 283.1881,33.1881 c 0.0000,-18.3293 -14.8588,-33.1881 -33.1881 -33.1881c -18.3293,-0.0000 -33.1881,14.8588 -33.1881 33.1881c -0.0000,18.3293 14.8588,33.1881 33.1881 33.1881c 18.3293,0.0000 33.1881,-14.8588 33.1881 -33.1881Z"/></g><defs></defs><g stroke-linejoin="miter" stroke-opacity="1.0" fill-opacity="1.0" font-size="33.18812500087099px" stroke="rgb(0,0,0)" stroke-width="1.9999999999999998" fill="rgb(0,0,0)" stroke-linecap="butt" stroke-miterlimit="10.0"><text dominant-baseline="middle" transform="matrix(1.0000,0.0000,0.0000,1.0000,250.0000,33.1881)" stroke="none" text-anchor="middle">2</text></g></svg>
