<?xml version="1.0" encoding="UTF-8"?>
<!DOCTYPE svg PUBLIC "-//W3C//DTD SVG 1.1//EN"
    "http://www.w3.org/Graphics/SVG/1.1/DTD/svg11.dtd"><svg xmlns="http://www.w3.org/2000/svg" height="45.6518" viewBox="0.0 0.0 500.00000000000006 45.65184700048555" font-size="1" xmlns:xlink="http://www.w3.org/1999/xlink" version="1.1" stroke-opacity="1" width="500.0000" stroke="rgb(0,0,0)"><defs></defs><g stroke-width="0.5" fill="rgb(255,255,0)" stroke-linecap="butt" stroke-linejoin="miter" stroke-opacity="1.0" fill-opacity="1.0" stroke="rgb(0,0,0)" stroke-miterlimit="10.0"><path d="M 490.8326,45.6518 l 9.1674,-28.2144 l -24.0006,-17.4375 l -24.0006,17.4375 l 9.1674,28.2144 Z"/></g><g font-size="19.777579013158512px" stroke-width="0.6043300224247381" fill="rgb(0,0,0)" stroke-linecap="butt" stroke-linejoin="miter" stroke-opacity="1.0" fill-opacity="1.0" stroke="rgb(0,0,0)" stroke-miterlimit="10.0"><text text-anchor="middle" transform="matrix(1.0000,0.0000,0.0000,1.0000,475.9994,25.2357)" dominant-baseline="middle" stroke="none">!</text></g><g stroke-width="0.5" fill="rgb(0,0,255)" stroke-linecap="butt" stroke-linejoin="miter" stroke-opacity="1.0" fill-opacity="1.0" stroke="rgb(0,0,0)" stroke-miterlimit="10.0"><path d="M 451.9988,45.0133 l -0.0000,-39.5552 h -39.5552 l -0.0000,39.5552 Z"/></g><g font-size="19.777579013158512px" stroke-width="0.6043300224247381" fill="rgb(0,0,0)" stroke-linecap="butt" stroke-linejoin="miter" stroke-opacity="1.0" fill-opacity="1.0" stroke="rgb(0,0,0)" stroke-miterlimit="10.0"><text text-anchor="middle" transform="matrix(1.0000,0.0000,0.0000,1.0000,432.2212,25.2357)" dominant-baseline="middle" stroke="none">d</text></g><g stroke-width="0.5" fill="rgb(0,128,0)" stroke-linecap="butt" stroke-linejoin="miter" stroke-opacity="1.0" fill-opacity="1.0" stroke="rgb(0,0,0)" stroke-miterlimit="10.0"><path d="M 412.4436,36.6543 l -19.7776,-34.2558 l -19.7776,34.2558 Z"/></g><g font-size="19.777579013158512px" stroke-width="0.6043300224247381" fill="rgb(0,0,0)" stroke-linecap="butt" stroke-linejoin="miter" stroke-opacity="1.0" fill-opacity="1.0" stroke="rgb(0,0,0)" stroke-miterlimit="10.0"><text text-anchor="middle" transform="matrix(1.0000,0.0000,0.0000,1.0000,392.6661,25.2357)" dominant-baseline="middle" stroke="none">l</text></g><g stroke-width="0.5" fill="rgb(255,0,0)" stroke-linecap="butt" stroke-linejoin="miter" stroke-opacity="1.0" fill-opacity="1.0" stroke="rgb(0,0,0)" stroke-miterlimit="10.0"><path d="M 372.8885,25.2357 c 0.0000,-10.9229 -8.8547,-19.7776 -19.7776 -19.7776c -10.9229,-0.0000 -19.7776,8.8547 -19.7776 19.7776c -0.0000,10.9229 8.8547,19.7776 19.7776 19.7776c 10.9229,0.0000 19.7776,-8.8547 19.7776 -19.7776Z"/></g><g font-size="19.777579013158512px" stroke-width="0.6043300224247381" fill="rgb(0,0,0)" stroke-linecap="butt" stroke-linejoin="miter" stroke-opacity="1.0" fill-opacity="1.0" stroke="rgb(0,0,0)" stroke-miterlimit="10.0"><text text-anchor="middle" transform="matrix(1.0000,0.0000,0.0000,1.0000,353.1109,25.2357)" dominant-baseline="middle" stroke="none">r</text></g><g stroke-width="0.5" fill="rgb(255,255,0)" stroke-linecap="butt" stroke-linejoin="miter" stroke-opacity="1.0" fill-opacity="1.0" stroke="rgb(0,0,0)" stroke-miterlimit="10.0"><path d="M 324.1659,45.6518 l 9.1674,-28.2144 l -24.0006,-17.4375 l -24.0006,17.4375 l 9.1674,28.2144 Z"/></g><g font-size="19.777579013158512px" stroke-width="0.6043300224247381" fill="rgb(0,0,0)" stroke-linecap="butt" stroke-linejoin="miter" stroke-opacity="1.0" fill-opacity="1.0" stroke="rgb(0,0,0)" stroke-miterlimit="10.0"><text text-anchor="middle" transform="matrix(1.0000,0.0000,0.0000,1.0000,309.3327,25.2357)" dominant-baseline="middle" stroke="none">o</text></g><g stroke-width="0.5" fill="rgb(0,0,255)" stroke-linecap="butt" stroke-linejoin="miter" stroke-opacity="1.0" fill-opacity="1.0" stroke="rgb(0,0,0)" stroke-miterlimit="10.0"><path d="M 285.3321,45.0133 l -0.0000,-39.5552 h -39.5552 l -0.0000,39.5552 Z"/></g><g font-size="19.777579013158512px" stroke-width="0.6043300224247381" fill="rgb(0,0,0)" stroke-linecap="butt" stroke-linejoin="miter" stroke-opacity="1.0" fill-opacity="1.0" stroke="rgb(0,0,0)" stroke-miterlimit="10.0"><text text-anchor="middle" transform="matrix(1.0000,0.0000,0.0000,1.0000,265.5546,25.2357)" dominant-baseline="middle" stroke="none">W</text></g><g stroke-width="0.5" fill="rgb(0,128,0)" stroke-linecap="butt" stroke-linejoin="miter" stroke-opacity="1.0" fill-opacity="1.0" stroke="rgb(0,0,0)" stroke-miterlimit="10.0"><path d="M 245.7770,36.6543 l -19.7776,-34.2558 l -19.7776,34.2558 Z"/></g><g font-size="19.777579013158512px" stroke-width="0.6043300224247381" fill="rgb(0,0,0)" stroke-linecap="butt" stroke-linejoin="miter" stroke-opacity="1.0" fill-opacity="1.0" stroke="rgb(0,0,0)" stroke-miterlimit="10.0"><text text-anchor="middle" transform="matrix(1.0000,0.0000,0.0000,1.0000,225.9994,25.2357)" dominant-baseline="middle" stroke="none"> </text></g><g stroke-width="0.5" fill="rgb(255,0,0)" stroke-linecap="butt" stroke-linejoin="miter" stroke-opacity="1.0" fill-opacity="1.0" stroke="rgb(0,0,0)" stroke-miterlimit="10.0"><path d="M 206.2218,25.2357 c 0.0000,-10.9229 -8.8547,-19.7776 -19.7776 -19.7776c -10.9229,-0.0000 -19.7776,8.8547 -19.7776 19.7776c -0.0000,10.9229 8.8547,19.7776 19.7776 19.7776c 10.9229,0.0000 19.7776,-8.8547 19.7776 -19.7776Z"/></g><g font-size="19.777579013158512px" stroke-width="0.6043300224247381" fill="rgb(0,0,0)" stroke-linecap="butt" stroke-linejoin="miter" stroke-opacity="1.0" fill-opacity="1.0" stroke="rgb(0,0,0)" stroke-miterlimit="10.0"><text text-anchor="middle" transform="matrix(1.0000,0.0000,0.0000,1.0000,186.4442,25.2357)" dominant-baseline="middle" stroke="none">o</text></g><g stroke-width="0.5" fill="rgb(255,255,0)" stroke-linecap="butt" stroke-linejoin="miter" stroke-opacity="1.0" fill-opacity="1.0" stroke="rgb(0,0,0)" stroke-miterlimit="10.0"><path d="M 157.4993,45.6518 l 9.1674,-28.2144 l -24.0006,-17.4375 l -24.0006,17.4375 l 9.1674,28.2144 Z"/></g><g font-size="19.777579013158512px" stroke-width="0.6043300224247381" fill="rgb(0,0,0)" stroke-linecap="butt" stroke-linejoin="miter" stroke-opacity="1.0" fill-opacity="1.0" stroke="rgb(0,0,0)" stroke-miterlimit="10.0"><text text-anchor="middle" transform="matrix(1.0000,0.0000,0.0000,1.0000,142.6661,25.2357)" dominant-baseline="middle" stroke="none">l</text></g><g stroke-width="0.5" fill="rgb(0,0,255)" stroke-linecap="butt" stroke-linejoin="miter" stroke-opacity="1.0" fill-opacity="1.0" stroke="rgb(0,0,0)" stroke-miterlimit="10.0"><path d="M 118.6655,45.0133 l -0.0000,-39.5552 h -39.5552 l -0.0000,39.5552 Z"/></g><g font-size="19.777579013158512px" stroke-width="0.6043300224247381" fill="rgb(0,0,0)" stroke-linecap="butt" stroke-linejoin="miter" stroke-opacity="1.0" fill-opacity="1.0" stroke="rgb(0,0,0)" stroke-miterlimit="10.0"><text text-anchor="middle" transform="matrix(1.0000,0.0000,0.0000,1.0000,98.8879,25.2357)" dominant-baseline="middle" stroke="none">l</text></g><g stroke-width="0.5" fill="rgb(0,128,0)" stroke-linecap="butt" stroke-linejoin="miter" stroke-opacity="1.0" fill-opacity="1.0" stroke="rgb(0,0,0)" stroke-miterlimit="10.0"><path d="M 79.1103,36.6543 l -19.7776,-34.2558 l -19.7776,34.2558 Z"/></g><g font-size="19.777579013158512px" stroke-width="0.6043300224247381" fill="rgb(0,0,0)" stroke-linecap="butt" stroke-linejoin="miter" stroke-opacity="1.0" fill-opacity="1.0" stroke="rgb(0,0,0)" stroke-miterlimit="10.0"><text text-anchor="middle" transform="matrix(1.0000,0.0000,0.0000,1.0000,59.3327,25.2357)" dominant-baseline="middle" stroke="none">e</text></g><g stroke-width="0.5" fill="rgb(255,0,0)" stroke-linecap="butt" stroke-linejoin="miter" stroke-opacity="1.0" fill-opacity="1.0" stroke="rgb(0,0,0)" stroke-miterlimit="10.0"><path d="M 39.5552,25.2357 c 0.0000,-10.9229 -8.8547,-19.7776 -19.7776 -19.7776c -10.9229,-0.0000 -19.7776,8.8547 -19.7776 19.7776c -0.0000,10.9229 8.8547,19.7776 19.7776 19.7776c 10.9229,0.0000 19.7776,-8.8547 19.7776 -19.7776Z"/></g><g font-size="19.777579013158512px" stroke-width="0.6043300224247381" fill="rgb(0,0,0)" stroke-linecap="butt" stroke-linejoin="miter" stroke-opacity="1.0" fill-opacity="1.0" stroke="rgb(0,0,0)" stroke-miterlimit="10.0"><text text-anchor="middle" transform="matrix(1.0000,0.0000,0.0000,1.0000,19.7776,25.2357)" dominant-baseline="middle" stroke="none">H</text></g></svg>